<svg id="svg" version="1.1" xmlns="http://www.w3.org/2000/svg" xmlns:xlink="http://www.w3.org/1999/xlink" width="400" height="400" viewBox="0, 0, 400,400"><g id="svgg"><path id="path0" d="M163.000 105.600 C 162.864 105.820,162.223 106.000,161.576 106.000 C 160.929 106.000,160.400 106.180,160.400 106.400 C 160.400 106.620,160.170 106.800,159.888 106.800 C 159.607 106.800,159.117 107.160,158.800 107.600 C 158.483 108.040,157.994 108.400,157.715 108.400 C 157.150 108.400,155.899 109.395,153.436 111.800 C 152.535 112.680,150.988 114.029,149.999 114.798 C 149.010 115.567,147.175 117.232,145.922 118.498 C 144.669 119.764,143.540 120.800,143.413 120.800 C 143.286 120.800,142.225 121.745,141.055 122.900 C 138.553 125.370,137.195 126.540,136.156 127.120 C 135.357 127.566,130.672 131.860,125.706 136.700 C 124.069 138.295,122.559 139.600,122.351 139.600 C 122.143 139.600,121.372 140.185,120.637 140.900 C 119.041 142.452,115.546 145.520,113.600 147.079 C 112.830 147.695,111.357 149.055,110.326 150.100 C 109.295 151.145,108.344 152.000,108.213 152.000 C 108.081 152.000,107.349 152.624,106.587 153.387 C 103.757 156.216,99.751 156.000,154.994 156.000 L 204.788 156.000 204.894 130.600 L 205.000 105.200 184.124 105.200 C 170.638 105.200,163.160 105.342,163.000 105.600 M218.800 130.600 L 218.800 156.000 240.400 156.000 L 262.000 156.000 262.000 136.546 C 262.000 117.859,261.697 112.000,260.731 112.000 C 260.549 112.000,260.400 111.761,260.400 111.470 C 260.400 111.178,260.085 110.643,259.700 110.279 C 257.297 108.011,256.794 107.600,256.418 107.600 C 256.188 107.600,256.000 107.420,256.000 107.200 C 256.000 106.980,255.730 106.800,255.400 106.800 C 255.070 106.800,254.800 106.620,254.800 106.400 C 254.800 106.180,254.260 106.000,253.600 106.000 C 252.940 106.000,252.400 105.820,252.400 105.600 C 252.400 105.340,246.533 105.200,235.600 105.200 L 218.800 105.200 218.800 130.600 " stroke="none" fill="#b4d3f3" fill-rule="evenodd"></path><path id="path1" d="M376.400 0.250 C 374.557 0.931,373.095 1.740,372.299 2.519 C 371.804 3.004,370.905 3.655,370.300 3.968 C 369.695 4.280,369.200 4.748,369.200 5.008 C 369.200 5.268,368.660 6.046,368.000 6.737 C 367.340 7.428,366.800 8.264,366.800 8.596 C 366.800 8.928,366.620 9.200,366.400 9.200 C 366.180 9.200,366.000 9.650,366.000 10.200 C 366.000 10.750,365.820 11.200,365.600 11.200 C 365.380 11.200,365.200 11.999,365.200 12.976 C 365.200 13.953,365.012 14.869,364.782 15.011 C 364.301 15.308,364.379 19.140,364.872 19.445 C 365.053 19.556,365.200 19.937,365.200 20.292 C 365.200 20.647,365.440 21.221,365.734 21.569 C 366.028 21.916,366.509 22.830,366.804 23.600 C 367.759 26.096,370.088 29.250,372.067 30.728 C 373.130 31.521,374.000 32.325,374.000 32.514 C 374.000 33.145,375.134 34.000,375.971 34.000 C 376.427 34.000,376.800 34.180,376.800 34.400 C 376.800 34.620,377.700 34.800,378.800 34.800 C 379.900 34.800,380.800 34.948,380.800 35.129 C 380.800 35.309,381.700 35.498,382.800 35.548 C 383.987 35.602,384.800 35.469,384.800 35.220 C 384.800 34.983,385.671 34.800,386.800 34.800 C 387.900 34.800,388.800 34.620,388.800 34.400 C 388.800 34.180,389.250 34.000,389.800 34.000 C 390.350 34.000,390.800 33.820,390.800 33.600 C 390.800 33.380,391.043 33.200,391.341 33.200 C 391.638 33.200,392.446 32.660,393.137 32.000 C 393.828 31.340,394.634 30.800,394.929 30.800 C 395.224 30.800,395.719 30.305,396.030 29.700 C 396.340 29.095,396.911 28.309,397.297 27.953 C 397.684 27.597,398.000 27.175,398.000 27.015 C 398.000 26.855,398.405 26.156,398.900 25.462 C 399.975 23.955,400.328 10.043,399.300 9.700 C 399.025 9.608,398.800 9.278,398.800 8.967 C 398.800 8.655,398.620 8.400,398.400 8.400 C 398.180 8.400,398.000 8.127,398.000 7.793 C 398.000 7.001,392.999 2.000,392.207 2.000 C 391.873 2.000,391.600 1.820,391.600 1.600 C 391.600 1.380,391.345 1.200,391.033 1.200 C 390.722 1.200,390.392 0.975,390.300 0.700 C 390.128 0.182,377.676 -0.221,376.400 0.250 M324.649 147.015 C 324.512 147.373,324.428 148.686,324.463 149.933 L 324.526 152.200 324.786 149.400 C 325.064 146.398,325.041 145.995,324.649 147.015 M183.106 177.461 C 178.806 179.727,178.625 186.578,182.800 188.991 C 184.802 190.148,208.350 190.249,210.091 189.108 C 214.750 186.055,214.411 179.503,209.481 177.300 C 207.761 176.531,184.602 176.673,183.106 177.461 M72.200 256.935 C 68.922 258.022,66.062 260.224,64.497 262.869 C 63.742 264.144,63.076 264.505,59.400 265.628 C 57.860 266.099,54.996 267.023,53.036 267.682 C 49.148 268.989,47.406 269.157,45.948 268.364 C 44.192 267.408,38.525 267.696,36.000 268.869 C 30.997 271.193,28.000 276.284,28.000 282.458 C 28.000 284.016,26.883 285.806,21.049 293.600 C 18.980 296.363,18.946 296.386,16.924 296.394 C 16.002 296.397,15.136 296.580,15.000 296.800 C 14.864 297.020,14.437 297.200,14.052 297.200 C 13.666 297.200,12.964 297.560,12.492 298.000 C 12.020 298.440,11.518 298.800,11.377 298.800 C 10.932 298.800,8.852 301.207,8.594 302.020 C 8.457 302.449,8.178 302.800,7.973 302.800 C 7.768 302.800,7.600 303.340,7.600 304.000 C 7.600 304.660,7.420 305.200,7.200 305.200 C 6.980 305.200,6.800 305.920,6.800 306.800 C 6.800 307.680,6.620 308.400,6.400 308.400 C 6.180 308.400,6.000 309.210,6.000 310.200 C 6.000 311.190,6.180 312.000,6.400 312.000 C 6.620 312.000,6.800 312.720,6.800 313.600 C 6.800 314.480,6.980 315.200,7.200 315.200 C 7.420 315.200,7.600 315.449,7.600 315.754 C 7.600 316.347,8.104 317.359,9.515 319.600 C 11.054 322.043,10.783 335.804,9.169 337.200 C 8.756 337.557,7.600 340.108,7.600 340.661 C 7.600 340.958,7.420 341.200,7.200 341.200 C 6.980 341.200,6.800 341.819,6.800 342.576 C 6.800 343.333,6.620 344.064,6.400 344.200 C 5.880 344.522,5.880 347.478,6.400 347.800 C 6.620 347.936,6.800 348.746,6.800 349.600 C 6.800 350.454,6.980 351.264,7.200 351.400 C 7.420 351.536,7.600 351.995,7.600 352.419 C 7.600 353.911,12.337 358.800,13.783 358.800 C 14.122 358.800,14.400 358.980,14.400 359.200 C 14.400 359.420,14.940 359.600,15.600 359.600 C 16.260 359.600,16.800 359.780,16.800 360.000 C 16.800 360.220,17.078 360.400,17.418 360.400 C 18.174 360.400,20.000 362.163,20.000 362.894 C 20.000 363.185,20.360 363.683,20.800 364.000 C 21.240 364.317,21.600 364.780,21.600 365.029 C 21.600 365.278,22.140 366.046,22.800 366.737 C 23.460 367.428,24.000 368.095,24.000 368.219 C 24.000 368.344,24.810 369.605,25.800 371.021 C 27.545 373.518,27.600 373.688,27.600 376.604 C 27.600 378.258,27.780 379.968,28.000 380.405 C 28.220 380.842,28.580 381.560,28.800 382.000 C 30.141 384.682,32.362 387.200,33.387 387.200 C 33.724 387.200,34.000 387.336,34.000 387.502 C 34.000 387.669,34.585 388.040,35.300 388.329 C 36.015 388.617,36.873 388.996,37.206 389.171 C 38.161 389.673,45.600 389.719,45.600 389.223 C 45.600 388.991,46.125 388.800,46.767 388.800 C 47.408 388.800,48.038 388.575,48.167 388.300 C 48.353 387.900,48.447 387.900,48.633 388.300 C 48.762 388.575,49.392 388.800,50.033 388.800 C 50.675 388.800,51.200 388.980,51.200 389.200 C 51.200 389.420,51.729 389.600,52.376 389.600 C 53.023 389.600,53.664 389.780,53.800 390.000 C 53.936 390.220,54.476 390.400,55.000 390.400 C 55.524 390.400,56.054 390.563,56.177 390.763 C 56.300 390.962,57.301 391.249,58.400 391.400 C 59.500 391.551,60.400 391.838,60.400 392.038 C 60.400 392.237,60.910 392.400,61.532 392.400 C 62.361 392.400,62.817 392.693,63.232 393.494 C 63.999 394.972,67.841 398.800,68.558 398.800 C 68.874 398.800,69.207 399.021,69.297 399.291 C 69.723 400.569,82.088 400.122,83.532 398.778 C 83.991 398.350,84.584 398.000,84.850 398.000 C 85.116 398.000,85.214 397.881,85.069 397.736 C 84.924 397.590,85.191 397.275,85.663 397.036 C 86.135 396.796,86.719 396.243,86.961 395.806 C 87.202 395.369,87.682 394.739,88.028 394.406 C 88.373 394.073,88.772 393.485,88.915 393.100 C 89.058 392.715,89.530 392.400,89.964 392.400 C 90.398 392.400,90.851 392.241,90.971 392.046 C 91.092 391.852,92.047 391.569,93.095 391.418 C 94.143 391.267,96.615 390.594,98.590 389.923 C 102.151 388.712,105.654 388.361,105.929 389.187 C 106.111 389.734,114.400 389.746,114.400 389.200 C 114.400 388.980,114.755 388.800,115.188 388.800 C 116.937 388.800,122.400 384.418,122.400 383.015 C 122.400 382.677,122.580 382.400,122.800 382.400 C 123.020 382.400,123.200 382.040,123.200 381.600 C 123.200 381.160,123.355 380.800,123.544 380.800 C 123.879 380.800,124.196 379.094,124.766 374.226 C 124.919 372.920,125.259 371.780,125.522 371.693 C 125.785 371.605,126.000 371.261,126.000 370.927 C 126.000 370.594,126.540 369.817,127.200 369.200 C 127.860 368.583,128.400 367.880,128.400 367.636 C 128.400 367.392,128.940 366.628,129.600 365.937 C 130.260 365.246,130.800 364.478,130.800 364.229 C 130.800 363.980,131.160 363.517,131.600 363.200 C 132.040 362.883,132.400 362.380,132.400 362.083 C 132.400 361.351,133.400 360.400,134.171 360.400 C 134.517 360.400,134.800 360.220,134.800 360.000 C 134.800 359.780,135.340 359.600,136.000 359.600 C 136.660 359.600,137.200 359.420,137.200 359.200 C 137.200 358.980,137.560 358.800,138.000 358.800 C 138.440 358.800,138.800 358.620,138.800 358.400 C 138.800 358.180,139.055 358.000,139.367 358.000 C 140.153 358.000,143.200 355.004,143.200 354.231 C 143.200 353.884,143.380 353.600,143.600 353.600 C 143.820 353.600,144.000 353.240,144.000 352.800 C 144.000 352.360,144.180 352.000,144.400 352.000 C 144.620 352.000,144.800 351.460,144.800 350.800 C 144.800 350.140,144.989 349.600,145.221 349.600 C 145.488 349.600,145.614 348.358,145.566 346.200 C 145.525 344.330,145.336 342.800,145.146 342.800 C 144.956 342.800,144.800 342.260,144.800 341.600 C 144.800 340.940,144.620 340.400,144.400 340.400 C 144.180 340.400,144.000 340.080,144.000 339.688 C 144.000 339.297,143.640 338.717,143.200 338.400 C 142.760 338.083,142.400 337.580,142.400 337.283 C 142.400 336.986,142.130 336.473,141.800 336.143 C 141.310 335.653,141.200 334.194,141.200 328.200 C 141.200 322.206,141.310 320.747,141.800 320.257 C 142.130 319.927,142.400 319.364,142.400 319.005 C 142.400 318.646,142.580 318.464,142.800 318.600 C 143.020 318.736,143.200 318.567,143.200 318.224 C 143.200 317.881,143.380 317.600,143.600 317.600 C 143.820 317.600,144.000 317.240,144.000 316.800 C 144.000 316.360,144.180 316.000,144.400 316.000 C 144.620 316.000,144.800 315.460,144.800 314.800 C 144.800 314.140,144.980 313.600,145.200 313.600 C 145.435 313.600,145.600 312.200,145.600 310.200 C 145.600 308.200,145.435 306.800,145.200 306.800 C 144.980 306.800,144.800 306.260,144.800 305.600 C 144.800 304.940,144.620 304.400,144.400 304.400 C 144.180 304.400,144.000 304.040,144.000 303.600 C 144.000 303.160,143.820 302.800,143.600 302.800 C 143.380 302.800,143.200 302.512,143.200 302.160 C 143.200 300.227,138.779 297.410,135.099 296.999 C 132.912 296.755,132.736 296.650,131.521 294.871 C 130.818 293.842,128.777 291.012,126.985 288.582 L 123.725 284.163 123.502 280.903 C 122.807 270.760,114.676 265.524,104.574 268.715 C 103.722 268.984,102.868 268.951,101.774 268.608 C 100.908 268.336,97.567 267.261,94.349 266.218 L 88.499 264.322 86.539 261.861 C 83.059 257.489,76.907 255.376,72.200 256.935 M320.514 256.980 C 317.658 257.873,315.330 259.502,313.400 261.958 C 311.557 264.304,311.536 264.316,306.876 265.815 C 304.304 266.641,300.954 267.720,299.432 268.211 C 297.265 268.911,296.395 269.020,295.432 268.715 C 285.278 265.499,277.072 270.779,276.478 280.911 C 276.297 284.002,276.279 284.045,273.734 287.511 C 272.325 289.430,270.424 292.080,269.508 293.400 C 267.186 296.749,267.146 296.777,264.325 297.062 C 262.756 297.220,261.346 297.632,260.600 298.151 C 258.743 299.444,256.800 301.508,256.800 302.187 C 256.800 302.524,256.620 302.800,256.400 302.800 C 256.180 302.800,256.000 303.160,256.000 303.600 C 256.000 304.040,255.820 304.400,255.600 304.400 C 255.380 304.400,255.200 304.940,255.200 305.600 C 255.200 306.260,255.020 306.800,254.800 306.800 C 254.569 306.800,254.400 308.059,254.400 309.776 C 254.400 311.413,254.580 312.864,254.800 313.000 C 255.020 313.136,255.200 313.867,255.200 314.624 C 255.200 315.381,255.380 316.000,255.600 316.000 C 255.820 316.000,256.000 316.320,256.000 316.712 C 256.000 317.103,256.360 317.683,256.800 318.000 C 257.240 318.317,257.600 318.820,257.600 319.117 C 257.600 319.414,257.870 319.927,258.200 320.257 C 258.690 320.747,258.800 322.206,258.800 328.200 C 258.800 334.194,258.690 335.653,258.200 336.143 C 257.870 336.473,257.600 336.986,257.600 337.283 C 257.600 337.580,257.240 338.083,256.800 338.400 C 256.360 338.717,256.000 339.286,256.000 339.665 C 256.000 340.043,255.820 340.464,255.600 340.600 C 255.380 340.736,255.200 341.377,255.200 342.024 C 255.200 342.671,255.020 343.200,254.800 343.200 C 254.567 343.200,254.400 344.533,254.400 346.400 C 254.400 348.267,254.567 349.600,254.800 349.600 C 255.020 349.600,255.200 350.140,255.200 350.800 C 255.200 351.460,255.380 352.000,255.600 352.000 C 255.820 352.000,256.000 352.360,256.000 352.800 C 256.000 353.240,256.180 353.600,256.400 353.600 C 256.620 353.600,256.800 353.856,256.800 354.169 C 256.800 354.885,259.942 358.000,260.664 358.000 C 260.959 358.000,261.200 358.180,261.200 358.400 C 261.200 358.620,261.560 358.800,262.000 358.800 C 262.440 358.800,262.800 358.980,262.800 359.200 C 262.800 359.420,263.340 359.600,264.000 359.600 C 264.660 359.600,265.200 359.780,265.200 360.000 C 265.200 360.220,265.483 360.400,265.829 360.400 C 266.566 360.400,267.600 361.340,267.600 362.011 C 267.600 362.268,268.140 362.983,268.800 363.600 C 269.460 364.217,270.000 364.920,270.000 365.164 C 270.000 365.408,270.540 366.172,271.200 366.863 C 271.860 367.554,272.400 368.322,272.400 368.571 C 272.400 368.820,272.760 369.283,273.200 369.600 C 273.640 369.917,274.000 370.334,274.000 370.527 C 274.000 370.719,274.334 371.354,274.742 371.938 C 275.262 372.681,275.565 374.079,275.752 376.589 C 275.898 378.563,276.194 380.354,276.409 380.569 C 276.624 380.784,276.800 381.284,276.800 381.680 C 276.800 382.076,276.980 382.400,277.200 382.400 C 277.420 382.400,277.600 382.670,277.600 383.000 C 277.600 383.330,277.780 383.600,278.000 383.600 C 278.220 383.600,278.400 383.786,278.400 384.013 C 278.400 384.488,281.015 387.196,281.487 387.209 C 281.659 387.214,282.250 387.570,282.800 388.000 C 283.350 388.430,284.205 388.786,284.700 388.791 C 285.195 388.796,285.600 388.980,285.600 389.200 C 285.600 389.441,287.267 389.600,289.800 389.600 C 292.333 389.600,294.000 389.441,294.000 389.200 C 294.000 388.980,294.540 388.800,295.200 388.800 C 295.867 388.800,296.400 388.587,296.400 388.320 C 296.400 387.947,296.507 387.947,296.880 388.320 C 297.144 388.584,297.763 388.800,298.256 388.800 C 298.749 388.800,299.264 388.980,299.400 389.200 C 299.536 389.420,300.177 389.600,300.824 389.600 C 301.471 389.600,302.000 389.780,302.000 390.000 C 302.000 390.220,302.529 390.400,303.176 390.400 C 303.823 390.400,304.454 390.563,304.577 390.763 C 304.700 390.962,305.700 391.249,306.800 391.400 C 307.900 391.551,308.900 391.838,309.023 392.037 C 309.146 392.237,309.687 392.400,310.224 392.400 C 310.852 392.400,311.200 392.628,311.200 393.040 C 311.200 393.391,311.734 394.178,312.386 394.787 C 313.038 395.396,313.478 395.989,313.363 396.104 C 313.248 396.219,313.749 396.729,314.477 397.237 C 315.205 397.745,315.890 398.260,316.000 398.381 C 317.294 399.804,330.262 400.615,330.700 399.300 C 330.792 399.025,331.126 398.800,331.442 398.800 C 332.093 398.800,336.400 394.638,336.400 394.009 C 336.400 393.784,336.580 393.600,336.800 393.600 C 337.020 393.600,337.200 393.330,337.200 393.000 C 337.200 392.600,337.600 392.400,338.400 392.400 C 339.060 392.400,339.600 392.233,339.600 392.029 C 339.600 391.825,340.590 391.534,341.800 391.383 C 343.010 391.232,344.000 390.949,344.000 390.754 C 344.000 390.559,344.540 390.400,345.200 390.400 C 345.860 390.400,346.400 390.220,346.400 390.000 C 346.400 389.780,346.929 389.600,347.576 389.600 C 348.223 389.600,348.864 389.420,349.000 389.200 C 349.136 388.980,349.651 388.800,350.144 388.800 C 350.637 388.800,351.256 388.584,351.520 388.320 C 351.893 387.947,352.000 387.947,352.000 388.320 C 352.000 388.587,352.533 388.800,353.200 388.800 C 353.860 388.800,354.400 388.980,354.400 389.200 C 354.400 389.441,356.067 389.600,358.600 389.600 C 361.133 389.600,362.800 389.441,362.800 389.200 C 362.800 388.980,363.205 388.796,363.700 388.791 C 364.195 388.786,365.050 388.430,365.600 388.000 C 366.150 387.570,366.753 387.214,366.940 387.209 C 367.485 387.195,370.800 383.525,370.800 382.936 C 370.800 382.641,370.980 382.400,371.200 382.400 C 371.420 382.400,371.600 382.076,371.600 381.680 C 371.600 381.284,371.771 380.789,371.981 380.579 C 372.190 380.370,372.423 378.634,372.499 376.721 C 372.596 374.261,372.823 373.033,373.275 372.522 C 373.626 372.125,374.267 371.130,374.700 370.311 C 375.133 369.491,375.603 368.936,375.744 369.077 C 375.885 369.218,376.000 369.016,376.000 368.627 C 376.000 368.239,376.540 367.417,377.200 366.800 C 377.860 366.183,378.400 365.480,378.400 365.236 C 378.400 364.992,378.940 364.228,379.600 363.537 C 380.260 362.846,380.800 362.115,380.800 361.912 C 380.800 361.325,381.884 360.400,382.571 360.400 C 382.917 360.400,383.200 360.220,383.200 360.000 C 383.200 359.780,383.740 359.600,384.400 359.600 C 385.060 359.600,385.600 359.420,385.600 359.200 C 385.600 358.980,385.960 358.800,386.400 358.800 C 386.840 358.800,387.200 358.620,387.200 358.400 C 387.200 358.180,387.481 358.000,387.824 358.000 C 388.193 358.000,388.331 357.812,388.162 357.538 C 387.997 357.271,388.051 357.184,388.291 357.333 C 388.897 357.707,390.612 356.219,391.194 354.814 C 391.471 354.146,391.855 353.600,392.049 353.600 C 392.242 353.600,392.400 353.251,392.400 352.824 C 392.400 352.397,392.580 351.936,392.800 351.800 C 393.020 351.664,393.200 350.944,393.200 350.200 C 393.200 349.456,393.380 348.736,393.600 348.600 C 393.820 348.464,394.000 347.373,394.000 346.176 C 394.000 344.979,393.820 344.000,393.600 344.000 C 393.380 344.000,393.200 343.370,393.200 342.600 C 393.200 341.830,393.020 341.200,392.800 341.200 C 392.580 341.200,392.400 340.834,392.400 340.386 C 392.400 339.688,391.476 337.837,390.809 337.200 C 389.800 336.235,389.600 334.752,389.600 328.213 L 389.600 321.216 391.000 319.027 C 391.770 317.823,392.400 316.470,392.400 316.019 C 392.400 315.569,392.580 315.200,392.800 315.200 C 393.020 315.200,393.200 314.480,393.200 313.600 C 393.200 312.720,393.380 312.000,393.600 312.000 C 393.820 312.000,394.000 311.201,394.000 310.224 C 394.000 309.247,393.820 308.336,393.600 308.200 C 393.380 308.064,393.200 307.254,393.200 306.400 C 393.200 305.546,393.020 304.736,392.800 304.600 C 392.580 304.464,392.400 304.003,392.400 303.576 C 392.400 303.149,392.232 302.800,392.027 302.800 C 391.822 302.800,391.543 302.449,391.406 302.020 C 391.148 301.207,389.068 298.800,388.623 298.800 C 388.482 298.800,387.980 298.440,387.508 298.000 C 387.036 297.560,386.334 297.200,385.948 297.200 C 385.563 297.200,385.136 297.020,385.000 296.800 C 384.864 296.580,384.340 296.400,383.836 296.400 C 383.331 296.400,382.354 295.860,381.663 295.200 C 380.972 294.540,380.145 294.000,379.823 294.000 C 379.502 294.000,377.991 292.317,376.466 290.261 C 372.057 284.318,371.542 283.436,371.762 282.219 C 373.232 274.115,363.816 265.835,355.600 268.006 C 351.562 269.073,351.064 269.013,343.709 266.575 C 339.862 265.301,336.509 264.025,336.257 263.740 C 336.006 263.455,335.260 262.517,334.600 261.656 C 331.336 257.398,325.441 255.441,320.514 256.980 M81.083 294.201 C 112.142 299.238,120.933 339.590,94.739 356.887 C 74.670 370.141,47.051 358.822,42.204 335.358 C 37.327 311.746,57.513 290.378,81.083 294.201 M328.400 294.010 C 346.350 296.800,358.422 310.594,358.393 328.283 C 358.334 364.788,308.632 375.723,292.975 342.676 C 281.559 318.578,302.385 289.967,328.400 294.010 " stroke="none" fill="#344c5c" fill-rule="evenodd"></path><path id="path2" d="M271.600 79.600 C 271.600 79.820,271.060 80.000,270.400 80.000 C 269.740 80.000,269.200 80.180,269.200 80.400 C 269.200 80.620,268.954 80.800,268.654 80.800 C 267.980 80.800,263.600 84.955,263.600 85.594 C 263.600 85.849,263.349 86.309,263.041 86.616 C 261.426 88.231,261.156 90.894,261.378 103.000 C 261.495 109.380,261.690 123.915,261.812 135.300 L 262.034 156.000 240.417 156.000 L 218.800 156.000 218.800 130.591 L 218.800 105.181 211.900 105.291 L 205.000 105.400 204.897 130.700 L 204.794 156.000 154.997 156.000 C 122.066 156.000,105.200 155.865,105.200 155.600 C 105.200 155.358,103.475 155.200,100.824 155.200 C 98.337 155.200,96.340 155.373,96.200 155.600 C 96.051 155.842,93.204 156.000,89.000 156.000 C 84.796 156.000,81.949 156.158,81.800 156.400 C 81.663 156.621,79.863 156.800,77.776 156.800 C 75.525 156.800,74.000 156.962,74.000 157.200 C 74.000 157.431,72.741 157.600,71.024 157.600 C 69.387 157.600,67.952 157.754,67.835 157.943 C 67.719 158.131,66.133 158.395,64.312 158.530 C 62.490 158.664,60.460 158.882,59.800 159.014 C 59.140 159.146,57.700 159.377,56.600 159.527 C 54.859 159.765,54.626 159.904,54.800 160.600 C 54.910 161.040,55.000 167.160,55.000 174.200 L 55.000 187.000 53.874 189.200 C 52.397 192.084,50.060 194.436,47.262 195.854 L 45.000 197.000 23.500 197.116 C 2.085 197.232,2.000 197.229,2.000 196.416 C 2.000 195.967,1.820 195.600,1.600 195.600 C 1.380 195.600,1.200 196.104,1.200 196.720 C 1.200 197.336,0.975 198.065,0.700 198.340 C 0.306 198.734,0.200 208.151,0.200 242.729 L 0.200 286.619 1.100 287.585 C 1.595 288.116,2.000 288.798,2.000 289.099 C 2.000 289.401,2.180 289.536,2.400 289.400 C 2.620 289.264,2.800 289.369,2.800 289.632 C 2.800 290.206,3.733 290.972,5.500 291.847 C 6.215 292.201,6.800 292.651,6.800 292.846 C 6.800 293.041,7.250 293.200,7.800 293.200 C 8.350 293.200,8.800 293.380,8.800 293.600 C 8.800 293.820,9.790 294.000,11.000 294.000 C 12.210 294.000,13.200 294.180,13.200 294.400 C 13.200 294.620,13.650 294.800,14.200 294.800 C 14.750 294.800,15.200 294.980,15.200 295.200 C 15.200 295.420,15.524 295.600,15.920 295.600 C 16.316 295.600,16.838 295.798,17.080 296.040 C 17.982 296.942,19.236 295.835,22.698 291.082 C 28.315 283.370,28.000 283.951,28.000 281.298 C 28.000 272.088,36.999 265.349,45.558 268.148 C 48.281 269.039,53.142 268.061,60.200 265.205 C 60.640 265.026,61.572 264.666,62.271 264.404 C 62.977 264.139,63.999 263.236,64.570 262.374 C 69.646 254.703,79.956 254.318,86.391 261.558 C 88.522 263.956,89.187 264.443,91.135 265.030 C 92.381 265.405,95.534 266.424,98.142 267.295 C 101.133 268.294,103.275 268.797,103.942 268.658 C 104.524 268.537,106.159 268.169,107.576 267.841 C 115.691 265.960,123.600 272.481,123.600 281.053 C 123.600 284.009,123.190 283.257,129.277 291.467 L 133.182 296.734 135.691 296.987 C 137.071 297.126,145.850 297.186,155.200 297.120 L 172.200 297.000 172.400 276.400 L 172.600 255.800 173.668 253.521 C 175.544 249.520,179.144 246.683,183.677 245.634 C 186.635 244.950,221.224 245.056,223.858 245.758 C 228.692 247.045,231.670 249.796,233.863 255.000 C 234.048 255.440,234.290 265.070,234.400 276.400 L 234.600 297.000 248.925 297.105 C 268.256 297.247,265.916 297.958,271.643 290.197 L 276.363 283.800 276.388 281.000 C 276.464 272.266,284.387 265.761,292.454 267.809 C 296.728 268.894,297.046 268.906,299.461 268.077 C 300.748 267.636,303.939 266.602,306.553 265.779 C 310.012 264.691,311.538 264.006,312.153 263.265 C 316.555 257.974,318.589 256.749,323.400 256.493 C 328.593 256.216,332.086 258.056,336.200 263.233 C 336.814 264.006,338.658 264.782,344.135 266.574 L 351.271 268.909 354.778 268.049 C 364.097 265.763,371.977 272.006,371.996 281.688 C 372.000 283.849,372.129 284.149,374.321 287.088 C 375.598 288.800,377.249 291.055,377.989 292.100 L 379.336 294.000 385.044 294.000 C 388.418 294.000,390.854 293.836,391.000 293.600 C 391.136 293.380,391.647 293.200,392.135 293.200 C 392.624 293.200,393.283 292.840,393.600 292.400 C 393.917 291.960,394.412 291.600,394.699 291.600 C 395.302 291.600,398.000 289.245,398.000 288.719 C 398.000 288.525,398.338 288.004,398.751 287.560 C 400.886 285.269,400.478 260.800,398.306 260.800 C 398.138 260.800,398.000 260.440,398.000 260.000 C 398.000 259.560,397.820 259.200,397.600 259.200 C 397.380 259.200,397.200 258.840,397.200 258.400 C 397.200 257.960,397.020 257.600,396.800 257.600 C 396.580 257.600,396.400 257.240,396.400 256.800 C 396.400 256.360,396.220 256.000,396.000 256.000 C 395.780 256.000,395.600 255.640,395.600 255.200 C 395.600 254.760,395.420 254.400,395.200 254.400 C 394.980 254.400,394.800 254.040,394.800 253.600 C 394.800 253.160,394.620 252.800,394.400 252.800 C 394.180 252.800,394.000 252.440,394.000 252.000 C 394.000 251.560,393.820 251.200,393.600 251.200 C 393.380 251.200,393.200 250.840,393.200 250.400 C 393.200 249.960,393.020 249.600,392.800 249.600 C 392.580 249.600,392.400 249.240,392.400 248.800 C 392.400 248.360,392.220 248.000,392.000 248.000 C 391.780 248.000,391.600 247.774,391.600 247.497 C 391.600 246.613,385.144 234.024,384.114 232.901 C 383.847 232.609,383.311 231.835,382.924 231.179 C 382.537 230.524,381.721 229.766,381.110 229.496 C 380.100 229.049,380.000 228.815,380.000 226.907 L 380.000 224.808 362.500 224.704 L 345.000 224.600 345.000 213.170 C 345.000 196.255,343.544 197.441,364.500 197.282 L 380.000 197.165 380.000 181.806 C 380.000 171.998,379.855 166.358,379.600 166.200 C 379.380 166.064,379.200 165.423,379.200 164.776 C 379.200 164.129,379.054 163.600,378.875 163.600 C 378.696 163.600,378.302 162.970,378.000 162.200 C 377.698 161.430,377.304 160.800,377.125 160.800 C 376.946 160.800,376.799 160.575,376.799 160.300 C 376.798 160.025,376.259 159.440,375.600 159.000 C 374.941 158.560,374.402 158.065,374.401 157.900 C 374.401 157.735,374.029 157.600,373.576 157.600 C 373.123 157.600,372.864 157.420,373.000 157.200 C 373.136 156.980,372.877 156.800,372.424 156.800 C 371.971 156.800,371.600 156.620,371.600 156.400 C 371.600 156.180,371.096 156.000,370.480 156.000 C 369.864 156.000,369.177 155.817,368.953 155.593 C 368.683 155.323,360.935 155.254,345.773 155.388 C 316.537 155.646,313.509 155.646,300.900 155.389 L 290.400 155.174 290.400 122.411 C 290.400 101.000,290.261 89.562,290.000 89.400 C 289.780 89.264,289.600 88.713,289.600 88.176 C 289.600 87.639,289.420 87.200,289.200 87.200 C 288.980 87.200,288.800 86.951,288.800 86.646 C 288.800 85.870,283.797 80.800,283.031 80.800 C 282.684 80.800,282.400 80.620,282.400 80.400 C 282.400 80.180,281.860 80.000,281.200 80.000 C 280.540 80.000,280.000 79.820,280.000 79.600 C 280.000 79.359,278.333 79.200,275.800 79.200 C 273.267 79.200,271.600 79.359,271.600 79.600 M209.871 177.234 C 215.320 179.872,214.671 188.277,208.893 189.894 C 205.875 190.739,184.664 190.237,183.000 189.281 C 177.960 186.388,178.313 179.332,183.612 177.033 C 186.067 175.969,207.597 176.133,209.871 177.234 M2.000 194.200 C 2.000 194.530,2.180 194.800,2.400 194.800 C 2.620 194.800,2.800 194.530,2.800 194.200 C 2.800 193.870,2.620 193.600,2.400 193.600 C 2.180 193.600,2.000 193.870,2.000 194.200 M186.658 259.507 C 186.144 260.338,185.908 272.007,186.393 272.592 C 187.062 273.398,219.520 273.520,220.320 272.720 C 221.123 271.917,220.983 259.756,220.167 259.443 C 219.235 259.085,186.880 259.147,186.658 259.507 M186.006 291.500 C 186.009 294.085,186.156 296.427,186.332 296.704 C 186.584 297.100,190.313 297.186,203.626 297.104 L 220.600 297.000 220.712 291.900 L 220.824 286.800 203.412 286.800 L 186.000 286.800 186.006 291.500 " stroke="none" fill="#d74535" fill-rule="evenodd"></path><path id="path3" d="M364.012 21.583 C 363.702 22.014,362.944 22.574,362.329 22.829 C 361.714 23.084,361.309 23.452,361.429 23.646 C 361.549 23.841,361.433 24.000,361.170 24.000 C 360.908 24.000,360.312 24.416,359.847 24.924 C 359.381 25.432,358.010 26.645,356.800 27.620 C 354.417 29.540,349.615 34.407,349.606 34.911 C 349.603 35.081,348.790 36.031,347.800 37.021 C 346.810 38.011,346.000 38.976,346.000 39.166 C 346.000 39.356,345.364 40.207,344.586 41.056 C 343.809 41.905,342.904 43.095,342.576 43.700 C 342.248 44.305,341.804 44.800,341.590 44.800 C 341.375 44.800,341.200 45.025,341.199 45.300 C 341.199 45.575,340.659 46.430,340.000 47.200 C 339.341 47.970,338.801 48.825,338.801 49.100 C 338.800 49.375,338.650 49.600,338.468 49.600 C 338.285 49.600,337.880 50.095,337.568 50.700 C 337.255 51.305,336.685 52.149,336.300 52.575 C 335.915 53.002,335.600 53.587,335.600 53.875 C 335.600 54.164,335.420 54.400,335.200 54.400 C 334.980 54.400,334.800 54.760,334.800 55.200 C 334.800 55.640,334.620 56.000,334.400 56.000 C 334.180 56.000,334.000 56.255,334.000 56.567 C 334.000 56.878,333.865 57.193,333.700 57.267 C 333.324 57.434,332.025 59.564,331.729 60.500 C 331.607 60.885,331.348 61.200,331.153 61.200 C 330.959 61.200,330.800 61.560,330.800 62.000 C 330.800 62.440,330.620 62.800,330.400 62.800 C 330.180 62.800,329.996 63.115,329.991 63.500 C 329.986 63.885,329.630 64.650,329.200 65.200 C 328.770 65.750,328.414 66.389,328.409 66.620 C 328.395 67.292,327.429 69.193,327.100 69.197 C 326.935 69.199,326.800 69.436,326.800 69.725 C 326.800 70.014,326.350 71.183,325.800 72.323 C 325.250 73.463,324.800 74.656,324.800 74.974 C 324.800 75.293,324.620 75.664,324.400 75.800 C 324.180 75.936,324.000 76.397,324.000 76.824 C 324.000 77.251,323.820 77.600,323.600 77.600 C 323.380 77.600,323.200 78.050,323.200 78.600 C 323.200 79.150,323.020 79.600,322.800 79.600 C 322.580 79.600,322.400 80.050,322.400 80.600 C 322.400 81.150,322.220 81.600,322.000 81.600 C 321.780 81.600,321.600 82.140,321.600 82.800 C 321.600 83.460,321.420 84.000,321.200 84.000 C 320.980 84.000,320.800 84.349,320.800 84.776 C 320.800 85.203,320.620 85.664,320.400 85.800 C 320.180 85.936,320.000 86.487,320.000 87.024 C 320.000 87.561,319.820 88.000,319.600 88.000 C 319.380 88.000,319.200 88.540,319.200 89.200 C 319.200 89.860,319.020 90.400,318.800 90.400 C 318.580 90.400,318.400 91.019,318.400 91.776 C 318.400 92.533,318.220 93.264,318.000 93.400 C 317.780 93.536,317.600 94.076,317.600 94.600 C 317.600 95.124,317.420 95.664,317.200 95.800 C 316.980 95.936,316.800 96.566,316.800 97.200 C 316.800 97.834,316.620 98.464,316.400 98.600 C 316.180 98.736,316.000 99.366,316.000 100.000 C 316.000 100.634,315.820 101.264,315.600 101.400 C 315.380 101.536,315.200 102.346,315.200 103.200 C 315.200 104.054,315.020 104.864,314.800 105.000 C 314.580 105.136,314.400 105.957,314.400 106.824 C 314.400 107.691,314.220 108.400,314.000 108.400 C 313.780 108.400,313.600 109.289,313.600 110.376 C 313.600 111.463,313.420 112.464,313.200 112.600 C 312.980 112.736,312.800 113.546,312.800 114.400 C 312.800 115.254,312.651 116.045,312.469 116.157 C 312.287 116.270,312.096 117.400,312.045 118.669 C 311.994 119.938,311.799 121.162,311.612 121.388 C 311.425 121.615,311.178 123.060,311.063 124.600 C 310.815 127.944,310.472 131.788,310.152 134.800 C 309.815 137.982,309.512 153.195,309.766 154.206 C 310.379 156.650,324.232 156.866,324.459 154.436 C 324.545 153.519,324.752 148.053,325.011 139.887 C 325.149 135.527,325.384 132.866,325.618 133.011 C 325.850 133.154,326.000 131.824,326.000 129.624 C 326.000 127.475,326.163 126.000,326.400 126.000 C 326.629 126.000,326.800 124.792,326.800 123.176 C 326.800 121.396,326.948 120.444,327.200 120.600 C 327.450 120.755,327.600 119.930,327.600 118.400 C 327.600 116.870,327.750 116.045,328.000 116.200 C 328.246 116.352,328.400 115.679,328.400 114.447 C 328.400 113.347,328.580 112.336,328.800 112.200 C 329.020 112.064,329.200 111.243,329.200 110.376 C 329.200 109.509,329.380 108.800,329.600 108.800 C 329.820 108.800,330.000 108.080,330.000 107.200 C 330.000 106.320,330.180 105.600,330.400 105.600 C 330.620 105.600,330.800 104.970,330.800 104.200 C 330.800 103.430,330.980 102.800,331.200 102.800 C 331.420 102.800,331.600 102.181,331.600 101.424 C 331.600 100.667,331.780 99.936,332.000 99.800 C 332.220 99.664,332.400 99.023,332.400 98.376 C 332.400 97.729,332.580 97.200,332.800 97.200 C 333.020 97.200,333.200 96.660,333.200 96.000 C 333.200 95.340,333.380 94.800,333.600 94.800 C 333.820 94.800,334.000 94.260,334.000 93.600 C 334.000 92.940,334.180 92.400,334.400 92.400 C 334.620 92.400,334.800 91.860,334.800 91.200 C 334.800 90.540,334.980 90.000,335.200 90.000 C 335.420 90.000,335.600 89.728,335.600 89.395 C 335.600 89.062,335.759 88.477,335.953 88.095 C 336.500 87.020,337.099 85.543,337.654 83.900 C 337.933 83.075,338.305 82.400,338.480 82.400 C 338.656 82.400,338.800 82.164,338.800 81.875 C 338.800 81.586,339.160 80.605,339.600 79.694 C 340.040 78.784,340.400 77.771,340.400 77.443 C 340.400 77.115,340.572 76.741,340.783 76.611 C 340.993 76.481,341.064 76.110,340.940 75.787 C 340.816 75.464,340.914 75.200,341.157 75.200 C 341.401 75.200,341.600 74.930,341.600 74.600 C 341.600 74.270,341.780 74.000,342.000 74.000 C 342.220 74.000,342.400 73.655,342.400 73.233 C 342.400 72.812,342.535 72.407,342.700 72.333 C 343.076 72.166,344.375 70.036,344.671 69.100 C 344.793 68.715,345.052 68.400,345.247 68.400 C 345.441 68.400,345.600 68.040,345.600 67.600 C 345.600 67.160,345.780 66.800,346.000 66.800 C 346.220 66.800,346.400 66.480,346.400 66.088 C 346.400 65.697,346.760 65.117,347.200 64.800 C 347.640 64.483,348.000 63.918,348.000 63.545 C 348.000 63.172,348.167 62.807,348.370 62.733 C 348.574 62.660,348.799 62.330,348.870 62.000 C 348.942 61.670,349.315 61.109,349.700 60.753 C 350.085 60.397,350.400 59.936,350.400 59.729 C 350.400 59.521,350.715 58.996,351.100 58.562 C 352.373 57.126,354.400 54.451,354.400 54.207 C 354.400 54.074,354.583 53.749,354.807 53.483 C 356.300 51.713,356.800 51.047,356.800 50.830 C 356.800 50.693,357.790 49.518,359.000 48.218 C 360.210 46.918,361.200 45.697,361.200 45.505 C 361.200 44.983,369.937 36.664,372.790 34.470 C 374.463 33.183,374.312 32.404,372.067 30.728 C 370.088 29.250,367.759 26.096,366.804 23.600 C 365.798 20.971,364.914 20.332,364.012 21.583 M190.725 176.699 C 194.093 176.766,199.493 176.766,202.725 176.699 C 205.956 176.632,203.200 176.577,196.600 176.577 C 190.000 176.577,187.356 176.632,190.725 176.699 M181.329 178.500 C 180.884 178.995,180.376 179.670,180.201 180.000 C 179.863 180.637,179.955 180.550,181.576 178.700 C 182.106 178.095,182.449 177.600,182.339 177.600 C 182.229 177.600,181.775 178.005,181.329 178.500 M213.206 181.833 C 213.209 182.255,213.395 182.870,213.618 183.200 C 213.915 183.638,213.952 183.476,213.756 182.600 C 213.427 181.129,213.198 180.810,213.206 181.833 M211.626 187.707 C 210.487 189.111,210.442 189.229,211.363 188.400 C 212.320 187.538,213.456 185.986,213.114 186.007 C 213.051 186.011,212.382 186.776,211.626 187.707 M191.324 190.299 C 194.362 190.367,199.222 190.367,202.124 190.299 C 205.026 190.231,202.540 190.175,196.600 190.175 C 190.660 190.175,188.286 190.231,191.324 190.299 M70.400 294.206 C 48.607 298.013,35.680 320.715,43.846 340.841 C 55.189 368.794,94.115 369.925,107.025 342.676 C 118.704 318.023,97.174 289.529,70.400 294.206 M318.600 294.218 C 290.784 298.797,279.981 333.341,300.264 352.850 C 319.675 371.521,352.265 361.636,357.796 335.400 C 362.778 311.767,342.354 290.308,318.600 294.218 " stroke="none" fill="#547483" fill-rule="evenodd"></path><path id="path4" d="M51.200 160.875 C 51.200 161.054,50.480 161.200,49.600 161.200 C 48.720 161.200,48.000 161.380,48.000 161.600 C 48.000 161.820,47.370 162.000,46.600 162.000 C 45.830 162.000,45.200 162.180,45.200 162.400 C 45.200 162.620,44.660 162.800,44.000 162.800 C 43.340 162.800,42.800 162.980,42.800 163.200 C 42.800 163.420,42.258 163.600,41.595 163.600 C 40.932 163.600,40.077 163.759,39.695 163.953 C 39.313 164.148,38.460 164.529,37.800 164.800 C 37.140 165.071,36.287 165.452,35.905 165.647 C 35.523 165.841,34.713 166.003,34.105 166.006 C 33.245 166.011,33.133 166.098,33.600 166.400 C 34.055 166.694,33.886 166.789,32.900 166.794 C 32.185 166.797,31.600 166.980,31.600 167.200 C 31.600 167.420,31.328 167.600,30.995 167.600 C 30.417 167.600,28.824 168.351,28.400 168.823 C 28.290 168.945,27.615 169.282,26.900 169.571 C 26.185 169.860,25.600 170.255,25.600 170.449 C 25.600 170.642,25.240 170.800,24.800 170.800 C 24.360 170.800,24.000 170.980,24.000 171.200 C 24.000 171.420,23.629 171.600,23.176 171.600 C 22.723 171.600,22.464 171.780,22.600 172.000 C 22.736 172.220,22.459 172.400,21.984 172.400 C 21.509 172.400,20.617 172.940,20.000 173.600 C 19.383 174.260,18.668 174.800,18.411 174.800 C 18.153 174.800,17.708 175.025,17.420 175.300 C 17.133 175.575,16.494 176.070,16.000 176.400 C 15.506 176.730,14.854 177.238,14.551 177.529 C 14.248 177.819,14.000 177.985,14.000 177.896 C 14.000 177.807,13.043 178.650,11.872 179.768 C 10.702 180.885,9.801 181.916,9.870 182.058 C 9.939 182.200,9.736 182.416,9.419 182.538 C 9.101 182.659,8.537 183.353,8.165 184.079 C 7.793 184.806,7.336 185.499,7.151 185.620 C 6.965 185.741,6.379 186.697,5.848 187.745 C 5.287 188.854,4.796 189.431,4.673 189.125 C 4.558 188.836,4.449 189.196,4.432 189.924 C 4.413 190.698,4.234 191.145,4.000 191.000 C 3.780 190.864,3.600 191.134,3.600 191.600 C 3.600 192.066,3.457 192.359,3.283 192.251 C 3.109 192.144,2.923 192.628,2.870 193.328 C 2.818 194.027,2.600 194.660,2.387 194.733 C 2.174 194.807,2.000 195.399,2.000 196.050 L 2.000 197.233 23.500 197.116 L 45.000 197.000 47.262 195.854 C 50.060 194.436,52.397 192.084,53.874 189.200 L 55.000 187.000 55.127 175.009 C 55.286 160.098,55.321 160.336,52.979 160.457 C 52.000 160.508,51.200 160.696,51.200 160.875 M349.286 197.540 C 345.399 198.646,344.735 201.126,344.880 214.000 L 345.000 224.600 362.500 224.704 L 380.000 224.808 380.000 211.004 L 380.000 197.200 365.100 197.240 C 356.905 197.262,349.789 197.397,349.286 197.540 M183.200 245.752 C 178.882 246.847,175.507 249.598,173.668 253.521 L 172.600 255.800 172.486 276.194 C 172.416 288.597,172.221 296.739,171.986 296.974 C 171.452 297.508,171.465 331.070,172.000 331.400 C 172.220 331.536,172.400 332.177,172.400 332.824 C 172.400 333.471,172.580 334.000,172.800 334.000 C 173.020 334.000,173.200 334.360,173.200 334.800 C 173.200 335.240,173.380 335.600,173.600 335.600 C 173.820 335.600,174.000 335.825,174.001 336.100 C 174.004 337.534,178.952 341.595,180.700 341.598 C 181.195 341.599,181.600 341.780,181.600 342.000 C 181.600 342.262,189.133 342.400,203.400 342.400 C 215.590 342.400,225.200 342.246,225.200 342.050 C 225.200 341.858,225.746 341.591,226.413 341.457 C 227.714 341.197,231.600 338.824,231.600 338.290 C 231.600 338.112,231.931 337.611,232.336 337.177 C 232.741 336.742,233.302 335.895,233.583 335.293 C 233.864 334.692,234.252 333.887,234.447 333.505 C 234.641 333.123,234.800 332.178,234.800 331.405 C 234.800 330.632,234.980 330.000,235.200 330.000 C 235.928 330.000,235.730 297.335,235.000 297.055 C 234.478 296.855,234.400 294.212,234.400 276.631 C 234.400 262.587,234.263 256.097,233.949 255.319 C 231.749 249.856,228.818 247.078,223.858 245.758 C 221.172 245.042,186.016 245.037,183.200 245.752 M220.167 259.443 C 220.983 259.756,221.123 271.917,220.320 272.720 C 219.520 273.520,187.062 273.398,186.393 272.592 C 185.908 272.007,186.144 260.338,186.658 259.507 C 186.880 259.147,219.235 259.085,220.167 259.443 M220.800 291.776 C 220.800 294.663,220.632 296.857,220.400 297.000 C 220.180 297.136,220.000 297.777,220.000 298.424 L 220.000 299.600 203.600 299.600 L 187.200 299.600 187.200 298.571 C 187.200 298.006,186.930 297.273,186.600 296.943 C 186.134 296.477,186.000 295.279,186.000 291.571 L 186.000 286.800 203.400 286.800 L 220.800 286.800 220.800 291.776 M220.000 321.400 L 220.000 327.600 203.600 327.600 L 187.200 327.600 187.200 321.400 L 187.200 315.200 203.600 315.200 L 220.000 315.200 220.000 321.400 " stroke="none" fill="#f3c528" fill-rule="evenodd"></path></g></svg>